<svg xmlns="http://www.w3.org/2000/svg" viewBox="0 0 32 32">
  <defs>
    <linearGradient id="grad" x1="0%" y1="0%" x2="100%" y2="100%">
      <stop offset="0%" style="stop-color:#14b8a6;stop-opacity:1" />
      <stop offset="100%" style="stop-color:#0d9488;stop-opacity:1" />
    </linearGradient>
  </defs>
  <rect width="32" height="32" rx="6" fill="url(#grad)"/>
  <path d="M16 6a10 10 0 0 0-7.35 3.15A10.02 10.02 0 0 0 6 16c0 4.77 3.26 8.77 7.68 9.92.44.09.6-.19.6-.43 0-.21-.01-.77-.01-1.51-3.13.68-3.79-1.51-3.79-1.51-.51-1.3-1.25-1.65-1.25-1.65-1.02-.7.08-.68.08-.68 1.13.08 1.72 1.16 1.72 1.16 1 1.72 2.63 1.22 3.27.93.1-.72.39-1.22.71-1.5-2.5-.28-5.13-1.25-5.13-5.57 0-1.23.44-2.23 1.16-3.02-.12-.28-.5-1.43.11-2.98 0 0 .94-.3 3.1 1.15a10.8 10.8 0 0 1 5.64 0c2.15-1.45 3.1-1.15 3.1-1.15.61 1.55.23 2.7.11 2.98.72.79 1.16 1.79 1.16 3.02 0 4.33-2.63 5.28-5.14 5.56.4.35.76 1.03.76 2.08 0 1.5-.01 2.71-.01 3.08 0 .24.16.52.61.43C22.74 24.77 26 20.77 26 16a10 10 0 0 0-10-10z" fill="white" fill-rule="evenodd"/>
  <path d="M16 7c-4.97 0-9 4.03-9 9s4.03 9 9 9 9-4.03 9-9-4.03-9-9-9zm0 1.5c4.14 0 7.5 3.36 7.5 7.5s-3.36 7.5-7.5 7.5-7.5-3.36-7.5-7.5 3.36-7.5 7.5-7.5z" fill="white" opacity="0.3"/>
  <path d="M12 16l3 3 5-6" stroke="white" stroke-width="2" stroke-linecap="round" stroke-linejoin="round" fill="none"/>
</svg>
